#!OML:ASF F:\VICON\USERDATA\INSTALL\rory3\rory3.ASF
:FULLY-SPECIFIED
:DEGREES
27
root 0.6812125435830344 17.842282603769778 9.878164782964706 -0.8095817169386634 -3.071443969714305 -6.61689263655137
lfemur -24.411923179739013 -5.040965512060376 -11.22438823075408
ltibia 24.048863909916527
lfoot -8.999386812923074 2.876069100974955
ltoes -3.968637573822861
rfemur 7.70520821871837 4.102933220359525 35.785053646527
rtibia 35.24233768187862
rfoot -15.81162047167481 -7.6639276086853485
rtoes -3.333244540450603
lowerback 10.227222112184027 2.242698944691688 7.013500890461004
upperback -0.25445731219438006 3.7454599879334944 2.2302662785398746
thorax -6.0687392105028115 1.597514406530239 -2.1240190258414726
lowerneck -16.190941335250468 -3.590977530972524 -2.028335770975454
upperneck 21.622985859282608 -5.354335254809646 0.8149133379330574
head 9.544377845211843 -2.3688529254464887 -0.02381272892564168
lclavicle 3.0076446264773153e-16 5.650159274411832e-17
lhumerus -35.95918169651987 8.474305639664776 80.90794277892786
lradius 19.17682610933667
lwrist 6.254660020535095
lhand -29.44241795323285 18.561747634868112
lfingers 7.125020000000001
lthumb -2.4724833879450774 49.34001908045767
rclavicle 2.9939849863676165e-16 5.552072092377633e-17
rhumerus -20.635148865438737 -12.204490234129809 -80.58685086245406
rradius 32.94830748862492
rwrist 0.9726864810203955
rhand -18.525635880023632 22.838796463666082
rfingers 7.125020000000001
rthumb 7.543734475654954 -7.490137009677592
28
root 0.7312489428921735 17.815118042464494 10.442623519133983 -1.2181192351068215 -3.0557647798031744 -6.003436153258645
lfemur -23.59201085119574 -4.698680475660762 -12.183794750818933
ltibia 23.912080858243417
lfoot -7.160655955055172 1.3661408215242448
ltoes -3.490544769689535
rfemur 8.878731797740668 4.034389374638103 34.78993904095023
rtibia 39.74589865221112
rfoot -15.250325374164827 -6.518540017585123
rtoes -3.969706553828016
lowerback 9.904186418121924 2.3655075235187026 6.617171676157235
upperback -0.2551637035211104 3.7908925878491315 2.1318139702823133
thorax -5.949018384507539 1.720414427904571 -2.174267289254133
lowerneck -16.224029161677155 -3.6229440810924536 -2.169214333432911
upperneck 21.65515758274731 -5.360102932882673 0.886952470035639
head 9.570996449915592 -2.3660958001325803 0.001111303585412865
lclavicle 3.007650265278845e-16 5.650199765533686e-17
lhumerus -36.457427625328805 8.831616592901876 80.42523104043042
lradius 18.74939008203065
lwrist 7.1965655230984495
lhand -29.101570504064572 18.42596954671245
lfingers 7.125020000000001
lthumb -2.1646639189057466 49.229279019551356
rclavicle 2.993986084985493e-16 5.55207998133596e-17
rhumerus -20.357176868552784 -12.79981398580519 -80.51931712503496
rradius 32.55462357115483
rwrist 1.8975775311469767
rhand -18.29641676563619 23.384107534984356
rfingers 7.125020000000001
rthumb 7.657027032838775 -7.233933755703871
29
root 0.7832146459026431 17.811364453518742 10.791596206053251 -1.902526061258947 -2.9394596124876644 -5.274148779726124
lfemur -23.472270813168226 -2.8686273643984688 -13.797455057651915
ltibia 27.985240973326544
lfoot -5.55480353260542 -1.7210991326504912
ltoes -4.14595625765871
rfemur 9.476838209131804 4.134526720936779 33.8738724789856
rtibia 45.778512733115654
rfoot -13.335794046058947 -5.5257322559693005
rtoes -3.381533995059425
lowerback 9.835274100430016 2.423829126015335 6.124646399970365
upperback -0.20812126295780364 3.701292520176054 1.836897287840009
thorax -5.826814482440768 1.7267696738402045 -2.1925878944761816
lowerneck -16.02505469842607 -3.6419093608449034 -2.3250308603743357
upperneck 21.779680375650383 -5.3488722551585575 1.001562213329307
head 9.594202211573544 -2.3607376824106114 0.03286469850093471
lclavicle 3.0076560643369716e-16 5.650241407426553e-17
lhumerus -36.697217033321074 9.118118151695912 79.90815762664612
lradius 18.419503814494917
lwrist 7.729520439330779
lhand -28.652804183988987 19.573690784138737
lfingers 7.125020000000001
lthumb -1.9323852635282686 49.81643750622986
rclavicle 2.993983239539491e-16 5.55205954874932e-17
rhumerus -20.874685644014185 -13.644536325058489 -80.37731743625983
rradius 31.6648431698974
rwrist 2.486527054655819
rhand -18.219284936886982 23.670042150015668
rfingers 7.125020000000001
rthumb 7.68411633930647 -7.049261611333893
30
root 0.8468289460568162 17.832275299231295 12.17968480169679 -2.69903709915742 -2.6747602556493155 -4.22729635750788
lfemur -22.355836112102544 -2.3328349876934373 -15.807775453894147
ltibia 31.63205600092276
lfoot -3.855237129885331 -4.826187524541453
ltoes -5.172963118035492
rfemur 8.368484158099045 3.2191802932202824 32.157333125007085
rtibia 52.66403565024536
rfoot -9.73123403226082 -4.326314583631018
rtoes -0.6550268720054775
lowerback 9.889381699460792 2.3429209737181598 5.108020203759299
upperback -0.12329245073357685 3.5953568825008375 1.592716070781413
thorax -5.811132157495209 1.6821729596932067 -1.8163352418402028
lowerneck -16.05823041133813 -3.642639310640663 -2.384621105293899
upperneck 21.9990162273673 -5.253607103589893 1.0666374485469774
head 9.65375449897202 -2.3694212729486925 0.02286026107640074
lclavicle 3.0076576864478846e-16 5.650253055485165e-17
lhumerus -36.70737036707058 9.33539134782277 79.50967185374228
lradius 18.260183603363174
lwrist 7.977992277763274
lhand -28.53887235278598 19.518921526029484
lfingers 7.125020000000001
lthumb -1.8284296750356315 49.91668638046395
rclavicle 2.9939854958943666e-16 5.55207575118875e-17
rhumerus -22.248941901442628 -14.890366561904262 -80.14625170708074
rradius 30.710153610682895
rwrist 3.5277264108411917
rhand -18.368468804998365 23.205163128653837
rfingers 7.125020000000001
rthumb 7.656949265394753 -7.271189200725388
